<svg width="104" height="22" viewBox="0 0 104 22" fill="none" xmlns="http://www.w3.org/2000/svg">
<path d="M9.84985 3.67072C10.1316 2.80366 11.3582 2.80366 11.64 3.67072L12.8579 7.419C12.9838 7.80676 13.3452 8.0693 13.7529 8.0693L17.6941 8.0693C18.6058 8.0693 18.9848 9.23592 18.2473 9.7718L15.0588 12.0884C14.7289 12.328 14.5909 12.7528 14.7169 13.1406L15.9348 16.8888C16.2165 17.7559 15.2241 18.4769 14.4866 17.941L11.2981 15.6245C10.9682 15.3848 10.5216 15.3848 10.1917 15.6245L7.00325 17.941C6.26568 18.4769 5.27329 17.7559 5.55502 16.8888L6.77291 13.1406C6.8989 12.7528 6.76088 12.328 6.43102 12.0884L3.24255 9.7718C2.50498 9.23592 2.88404 8.0693 3.79573 8.0693L7.7369 8.0693C8.14462 8.0693 8.50597 7.80676 8.63196 7.419L9.84985 3.67072Z" fill="#EDBC32"/>
<path d="M30.553 3.67072C30.8347 2.80366 32.0614 2.80366 32.3431 3.67072L33.561 7.419C33.687 7.80676 34.0483 8.0693 34.456 8.0693L38.3972 8.0693C39.3089 8.0693 39.688 9.23592 38.9504 9.7718L35.7619 12.0884C35.4321 12.328 35.294 12.7528 35.42 13.1406L36.6379 16.8888C36.9196 17.7559 35.9272 18.4769 35.1897 17.941L32.0012 15.6245C31.6714 15.3848 31.2247 15.3848 30.8949 15.6245L27.7064 17.941C26.9688 18.4769 25.9764 17.7559 26.2581 16.8888L27.476 13.1406C27.602 12.7528 27.464 12.328 27.1341 12.0884L23.9457 9.7718C23.2081 9.23592 23.5872 8.0693 24.4989 8.0693L28.44 8.0693C28.8477 8.0693 29.2091 7.80676 29.3351 7.419L30.553 3.67072Z" fill="#EDBC32"/>
<path d="M51.26 3.67072C51.5417 2.80366 52.7684 2.80366 53.0501 3.67072L54.268 7.419C54.394 7.80676 54.7553 8.0693 55.1631 8.0693L59.1042 8.0693C60.0159 8.0693 60.395 9.23592 59.6574 9.7718L56.4689 12.0884C56.1391 12.328 56.0011 12.7528 56.1271 13.1406L57.3449 16.8888C57.6267 17.7559 56.6343 18.4769 55.8967 17.941L52.7082 15.6245C52.3784 15.3848 51.9317 15.3848 51.6019 15.6245L48.4134 17.941C47.6758 18.4769 46.6834 17.7559 46.9652 16.8888L48.1831 13.1406C48.3091 12.7528 48.171 12.328 47.8412 12.0884L44.6527 9.7718C43.9151 9.23592 44.2942 8.0693 45.2059 8.0693L49.1471 8.0693C49.5548 8.0693 49.9161 7.80676 50.0421 7.419L51.26 3.67072Z" fill="#EDBC32"/>
<path d="M71.9631 3.67072C72.2449 2.80366 73.4715 2.80366 73.7532 3.67072L74.9711 7.419C75.0971 7.80676 75.4585 8.0693 75.8662 8.0693L79.8074 8.0693C80.719 8.0693 81.0981 9.23592 80.3605 9.7718L77.1721 12.0884C76.8422 12.328 76.7042 12.7528 76.8302 13.1406L78.0481 16.8888C78.3298 17.7559 77.3374 18.4769 76.5998 17.941L73.4114 15.6245C73.0815 15.3848 72.6349 15.3848 72.305 15.6245L69.1165 17.941C68.379 18.4769 67.3866 17.7559 67.6683 16.8888L68.8862 13.1406C69.0122 12.7528 68.8742 12.328 68.5443 12.0884L65.3558 9.7718C64.6183 9.23592 64.9973 8.0693 65.909 8.0693L69.8502 8.0693C70.2579 8.0693 70.6192 7.80676 70.7452 7.419L71.9631 3.67072Z" fill="#EDBC32"/>
<path d="M92.6682 3.67072C92.9499 2.80366 94.1766 2.80366 94.4583 3.67072L95.6762 7.419C95.8022 7.80676 96.1636 8.0693 96.5713 8.0693L100.512 8.0693C101.424 8.0693 101.803 9.23592 101.066 9.7718L97.8771 12.0884C97.5473 12.328 97.4093 12.7528 97.5353 13.1406L98.7531 16.8888C99.0349 17.7559 98.0425 18.4769 97.3049 17.941L94.1164 15.6245C93.7866 15.3848 93.3399 15.3848 93.0101 15.6245L89.8216 17.941C89.084 18.4769 88.0917 17.7559 88.3734 16.8888L89.5913 13.1406C89.7173 12.7528 89.5792 12.328 89.2494 12.0884L86.0609 9.7718C85.3233 9.23592 85.7024 8.0693 86.6141 8.0693L90.5553 8.0693C90.963 8.0693 91.3243 7.80676 91.4503 7.419L92.6682 3.67072Z" fill="#EDBC32"/>
</svg>
